HIERARCHY
ROOT Hips
{
	OFFSET 0.000000 0.000000 0.000000
	CHANNELS 6 Xposition Yposition Zposition Xrotation Yrotation Zrotation
	JOINT LeftUpLeg_virtual
	{
		OFFSET 0.000000 0.000000 0.000000
		CHANNELS 3 Xrotation Yrotation Zrotation
		JOINT LeftUpLeg
		{
			OFFSET 10.205400 -3.823500 0.155100
			CHANNELS 3 Xrotation Yrotation Zrotation
			JOINT LeftLeg
			{
				OFFSET 0.708757 -12.982077 0.567790
				CHANNELS 3 Xrotation Yrotation Zrotation
				JOINT LeftFoot
				{
					OFFSET -0.708756 -10.717838 -2.184338
					CHANNELS 3 Xrotation Yrotation Zrotation
					JOINT LeftToeBase
					{
						OFFSET 0.108149 -7.191104 7.560241
						CHANNELS 3 Xrotation Yrotation Zrotation
						JOINT LeftToe_End
						{
							OFFSET 0.070230 0.081724 4.490308
							CHANNELS 3 Xrotation Yrotation Zrotation
							End Site
							{
								OFFSET 0 0 0
							}
						}
					}
				}
			}
		}
	}
	JOINT RightUpLeg_virtual
	{
		OFFSET 0.000000 0.000000 0.000000
		CHANNELS 3 Xrotation Yrotation Zrotation
		JOINT RightUpLeg
		{
			OFFSET -10.205400 -3.823500 0.005500
			CHANNELS 3 Xrotation Yrotation Zrotation
			JOINT RightLeg
			{
				OFFSET -0.708756 -12.982134 0.610632
				CHANNELS 3 Xrotation Yrotation Zrotation
				JOINT RightFoot
				{
					OFFSET 0.708754 -10.717769 -1.945823
					CHANNELS 3 Xrotation Yrotation Zrotation
					JOINT RightToeBase
					{
						OFFSET -0.108140 -7.191069 7.372968
						CHANNELS 3 Xrotation Yrotation Zrotation
						JOINT RightToe_End
						{
							OFFSET -0.070227 0.081735 4.479403
							CHANNELS 3 Xrotation Yrotation Zrotation
							End Site
							{
								OFFSET 0 0 0
							}
						}
					}
				}
			}
		}
	}
	JOINT Spine_virtual
	{
		OFFSET 0.000000 0.000000 0.000000
		CHANNELS 3 Xrotation Yrotation Zrotation
		JOINT Spine
		{
			OFFSET 0.000000 6.876099 0.125700
			CHANNELS 3 Xrotation Yrotation Zrotation
			JOINT Spine1
			{
				OFFSET 0.000000 5.730043 0.104720
				CHANNELS 3 Xrotation Yrotation Zrotation
				JOINT Spine1_split
				{
					OFFSET 0.000000 5.730043 0.104720
					CHANNELS 3 Xrotation Yrotation Zrotation
					JOINT Spine2
					{
						OFFSET 0.000000 5.730043 0.104720
						CHANNELS 3 Xrotation Yrotation Zrotation
						JOINT Neck_virtual
						{
							OFFSET 0.000000 0.000000 0.000000
							CHANNELS 3 Xrotation Yrotation Zrotation
							JOINT Neck
							{
								OFFSET 0.000000 10.314075 0.188496
								CHANNELS 3 Xrotation Yrotation Zrotation
								JOINT Head
								{
									OFFSET 0.000000 7.643700 -2.377400
									CHANNELS 3 Xrotation Yrotation Zrotation
									JOINT HeadTop_End
									{
										OFFSET 0.000000 43.788605 -13.619600
										CHANNELS 3 Xrotation Yrotation Zrotation
										End Site
										{
											OFFSET 0 0 0
										}
									}
								}
							}
						}
						JOINT LeftShoulder_virtual
						{
							OFFSET 0.000000 0.000000 0.000000
							CHANNELS 3 Xrotation Yrotation Zrotation
							JOINT LeftShoulder
							{
								OFFSET 2.196100 4.412489 0.087492
								CHANNELS 3 Xrotation Yrotation Zrotation
								JOINT LeftShoulder_split
								{
									OFFSET 2.196100 4.412489 0.087492
									CHANNELS 3 Xrotation Yrotation Zrotation
									JOINT LeftArm
									{
										OFFSET 8.771219 -2.981674 -0.026999
										CHANNELS 3 Xrotation Yrotation Zrotation
										JOINT LeftForeArm
										{
											OFFSET 8.512804 0.000000 -0.000000
											CHANNELS 3 Xrotation Yrotation Zrotation
											JOINT LeftHand
											{
												OFFSET 18.484802 0.000000 -0.000000
												CHANNELS 3 Xrotation Yrotation Zrotation
												End Site
												{
													OFFSET 0 0 0
												}
											}
										}
									}
								}
							}
						}
						JOINT RightShoulder_virtual
						{
							OFFSET 0.000000 0.000000 0.000000
							CHANNELS 3 Xrotation Yrotation Zrotation
							JOINT RightShoulder
							{
								OFFSET -2.196100 4.412496 0.070690
								CHANNELS 3 Xrotation Yrotation Zrotation
								JOINT RightShoulder_split
								{
									OFFSET -2.196100 4.412496 0.070690
									CHANNELS 3 Xrotation Yrotation Zrotation
									JOINT RightArm
									{
										OFFSET -8.771282 -2.981682 -0.094208
										CHANNELS 3 Xrotation Yrotation Zrotation
										JOINT RightForeArm
										{
											OFFSET -8.494598 0.000000 0.000000
											CHANNELS 3 Xrotation Yrotation Zrotation
											JOINT RightHand
											{
												OFFSET -18.483803 0.000000 0.000001
												CHANNELS 3 Xrotation Yrotation Zrotation
												End Site
												{
													OFFSET 0 0 0
												}
											}
										}
									}
								}
							}
						}
					}
				}
			}
		}
	}
}
MOTION
Frames: 8
Frame Time: 0.03333333
5.705779 15.497898 -1.588121 0.000000 0.000000 0.000000 0.907147 -31.662404 7.139373 -87.648730 -19.656055 50.182103 74.735500 8.796532 -5.305544 42.155654 -2.075154 -5.968902 -0.980097 0.193994 -0.860032 0.000000 0.000000 0.000000 -2.929657 -27.580956 6.717899 17.231468 -1.562069 -25.766259 103.185485 20.671709 -0.231869 -0.165741 3.794084 24.988577 35.870641 -0.651731 -13.737315 0.000000 0.000000 0.000000 -1.948207 -31.987815 6.141762 3.803741 -5.938147 -2.995556 2.334683 -4.034922 -2.142495 0.896519 0.485716 0.125612 0.000000 0.000000 0.000000 1.907849 -4.434591 -2.062929 0.525222 1.944430 2.107342 2.179107 14.811180 5.078304 0.000000 0.000000 0.000000 1.773321 -4.125880 -2.232897 1.437517 1.336556 -1.818008 -4.494454 0.933875 -0.878567 -0.242043 -14.929745 -48.702008 178.366634 -86.521708 178.906874 0.000000 0.000000 0.000000 3.013222 -4.125164 -2.354071 5.416864 17.246269 3.839376 -0.995546 4.925524 -0.732278 -31.856685 -12.938322 45.559875 -179.636284 82.967285 179.222648 0.000000 0.000000 0.000000 
5.690546 15.502197 -1.569490 0.000000 0.000000 0.000000 1.030895 -31.631665 7.223782 -87.566672 -19.557557 50.333296 74.725678 8.898032 -5.554695 42.138982 -2.026997 -5.868482 -0.989756 0.208473 -0.902702 0.000000 0.000000 0.000000 -2.792739 -27.578579 6.796961 16.990312 -1.488096 -25.736699 103.259859 20.619648 -0.304698 -0.089281 3.766435 25.008270 36.201512 -0.659665 -13.514859 0.000000 0.000000 0.000000 -1.804122 -31.925479 6.208256 3.740910 -5.852446 -3.213060 2.371132 -3.964846 -2.325416 0.895411 0.461673 0.135749 0.000000 0.000000 0.000000 1.918545 -4.383051 -2.213158 0.384233 1.773522 2.554044 2.106075 14.866709 5.384630 0.000000 0.000000 0.000000 1.771344 -4.045972 -2.400747 1.399214 1.525610 -1.076202 -4.644722 0.795356 -1.021857 -0.169923 -14.984211 -49.039754 -179.515499 -86.511709 -178.904087 0.000000 0.000000 0.000000 3.003000 -4.060726 -2.549321 5.388884 17.401363 4.353338 -1.086602 4.979115 -0.666766 -30.731265 -11.823131 43.134779 -179.739734 78.897694 179.377215 0.000000 0.000000 0.000000 
5.675380 15.505292 -1.549938 0.000000 0.000000 0.000000 1.144272 -31.601202 7.277771 -87.527945 -19.451195 50.511414 74.727003 9.015664 -5.797357 42.146389 -2.048531 -5.738152 -0.993093 0.224819 -0.931333 0.000000 0.000000 0.000000 -2.665908 -27.559265 6.839879 16.814570 -1.449452 -25.641635 103.264285 20.556675 -0.361299 -0.010645 3.720530 25.004648 36.501094 -0.663697 -13.292551 0.000000 0.000000 0.000000 -1.675218 -31.814270 6.246877 3.661283 -5.748032 -3.429409 2.415780 -3.900706 -2.500657 0.890724 0.415074 0.150164 0.000000 0.000000 0.000000 1.946134 -4.327045 -2.357418 0.202839 1.585329 3.040442 2.056572 14.894344 5.654132 0.000000 0.000000 0.000000 1.770431 -3.964579 -2.562630 1.343065 1.776651 -0.491060 -4.679047 0.636674 -1.103868 -0.125141 -15.106599 -49.226000 -177.898670 -86.457402 -177.214558 0.000000 0.000000 0.000000 3.002232 -3.993469 -2.734740 5.339447 17.532860 4.986436 -1.180434 4.978530 -0.563698 -29.957841 -10.958602 41.018332 -179.757287 75.194372 179.459532 0.000000 0.000000 0.000000 
5.660552 15.508110 -1.535137 0.000000 0.000000 0.000000 1.239304 -31.569517 7.287088 -87.532269 -19.345391 50.697912 74.737255 9.153117 -6.016780 42.166955 -2.127647 -5.562854 -0.983907 0.241551 -0.946437 0.000000 0.000000 0.000000 -2.561677 -27.521706 6.835900 16.721205 -1.462215 -25.469039 103.199247 20.480529 -0.404482 0.058904 3.660781 24.995520 36.700942 -0.659414 -13.102702 0.000000 0.000000 0.000000 -1.569545 -31.666253 6.249244 3.571702 -5.628277 -3.638298 2.475405 -3.837746 -2.663665 0.892303 0.369848 0.171816 0.000000 0.000000 0.000000 1.995490 -4.266931 -2.492538 -0.003297 1.394893 3.562591 2.072444 14.940093 5.841140 0.000000 0.000000 0.000000 1.791362 -3.883339 -2.710166 1.273850 2.055891 -0.017370 -4.603214 0.457199 -1.087549 -0.090732 -15.295995 -49.299663 -176.681216 -86.365843 -175.923598 0.000000 0.000000 0.000000 3.032307 -3.923800 -2.904637 5.262269 17.678159 5.762923 -1.237278 4.892144 -0.461838 -29.219256 -10.105158 39.119936 -179.722945 71.967968 179.502972 0.000000 0.000000 0.000000 
5.646636 15.511990 -1.527666 0.000000 0.000000 0.000000 1.316395 -31.528836 7.253193 -87.572669 -19.249273 50.860129 74.744365 9.309711 -6.195430 42.198387 -2.253890 -5.347423 -0.975161 0.257511 -0.950381 0.000000 0.000000 0.000000 -2.485879 -27.457161 6.786096 16.688536 -1.532682 -25.228967 103.079671 20.405299 -0.449878 0.128974 3.607627 25.031342 36.756485 -0.646973 -12.969289 0.000000 0.000000 0.000000 -1.485610 -31.491748 6.220129 3.478047 -5.499623 -3.836262 2.551405 -3.772711 -2.813876 0.876467 0.323223 0.174513 0.000000 0.000000 0.000000 2.063604 -4.207501 -2.623377 -0.228394 1.213688 4.102146 2.175865 15.040391 5.908427 0.000000 0.000000 0.000000 1.843540 -3.807170 -2.840479 1.197331 2.328074 0.394384 -4.446737 0.283851 -0.971237 -0.091827 -15.535207 -49.330993 -175.713829 -86.228304 -174.876994 0.000000 0.000000 0.000000 3.103501 -3.859365 -3.059474 5.167125 17.840522 6.610300 -1.269078 4.713219 -0.363079 -28.238942 -9.051800 37.330498 -179.660517 69.218148 179.521673 0.000000 0.000000 0.000000 
5.633212 15.516292 -1.531765 0.000000 0.000000 0.000000 1.374522 -31.454302 7.187210 -87.646859 -19.161440 50.963515 74.735261 9.480566 -6.323368 42.260361 -2.418346 -5.116739 -0.992127 0.272533 -0.943299 0.000000 0.000000 0.000000 -2.432955 -27.365399 6.708498 16.701477 -1.649432 -24.945162 102.915986 20.345014 -0.508906 0.206645 3.574975 25.145792 36.687890 -0.628459 -12.891474 0.000000 0.000000 0.000000 -1.422395 -31.294349 6.174623 3.387031 -5.371417 -4.023936 2.634943 -3.706820 -2.954536 0.885095 0.301070 0.180098 0.000000 0.000000 0.000000 2.143803 -4.152031 -2.751231 -0.465507 1.065592 4.627005 2.366298 15.232288 5.838019 0.000000 0.000000 0.000000 1.918388 -3.738592 -2.957146 1.118327 2.577897 0.777479 -4.279259 0.156448 -0.820746 -0.136456 -15.805030 -49.388579 -174.852091 -86.064782 -173.933472 0.000000 0.000000 0.000000 3.203207 -3.805283 -3.205101 5.063442 18.002671 7.458699 -1.290493 4.500616 -0.289907 -26.833324 -7.698752 35.593373 -179.560277 66.848134 179.489517 0.000000 0.000000 0.000000 
5.618358 15.521387 -1.541533 0.000000 0.000000 0.000000 1.412770 -31.322971 7.102709 -87.751914 -19.072040 50.992772 74.691745 9.668099 -6.403564 42.381816 -2.601373 -4.881402 -1.035723 0.284728 -0.928528 0.000000 0.000000 0.000000 -2.392298 -27.234944 6.623881 16.744863 -1.799528 -24.629686 102.715895 20.302172 -0.580973 0.289819 3.562061 25.341988 36.549442 -0.605734 -12.845406 0.000000 0.000000 0.000000 -1.377255 -31.065626 6.123969 3.301995 -5.251012 -4.206295 2.710122 -3.640934 -3.089999 0.883576 0.284525 0.170013 0.000000 0.000000 0.000000 2.234285 -4.100887 -2.876572 -0.711639 0.965657 5.100344 2.606798 15.516158 5.634372 0.000000 0.000000 0.000000 2.004254 -3.677710 -3.062816 1.041756 2.800102 1.142194 -4.154599 0.095400 -0.710257 -0.211434 -16.092916 -49.523017 -174.094815 -85.892197 -173.101131 0.000000 0.000000 0.000000 3.298621 -3.766550 -3.344755 4.964934 18.142511 8.213647 -1.281015 4.322483 -0.261622 -24.985008 -6.123141 33.989408 -179.458125 64.688066 179.425996 0.000000 0.000000 0.000000 
5.599333 15.526792 -1.553886 0.000000 0.000000 0.000000 1.440969 -31.120965 7.020140 -87.891468 -18.964087 50.953320 74.585147 9.873245 -6.449722 42.565503 -2.777904 -4.643747 -1.091084 0.294443 -0.906667 0.000000 0.000000 0.000000 -2.352491 -27.056611 6.548618 16.831169 -1.964842 -24.286039 102.467796 20.277645 -0.652393 0.354523 3.555672 25.585906 36.411308 -0.580031 -12.799709 0.000000 0.000000 0.000000 -1.339766 -30.790998 6.084924 3.218878 -5.142041 -4.386284 2.761596 -3.576048 -3.221085 0.885886 0.302049 0.144099 0.000000 0.000000 0.000000 2.318853 -4.050834 -2.996461 -0.966930 0.913020 5.488773 2.857424 15.859720 5.324611 0.000000 0.000000 0.000000 2.075128 -3.619071 -3.161867 0.971472 2.986986 1.478697 -4.073426 0.094729 -0.676636 -0.256916 -16.413600 -49.729098 -173.447477 -85.748859 -172.393947 0.000000 0.000000 0.000000 3.362236 -3.737616 -3.477377 4.887453 18.234916 8.800712 -1.247767 4.188801 -0.240823 -22.793453 -4.457076 32.671411 -179.388785 62.653353 179.361492 0.000000 0.000000 0.000000 
